<?xml version="1.0" encoding="UTF-8" standalone="no"?>
<!DOCTYPE svg PUBLIC "-//W3C//DTD SVG 1.1//EN"
 "http://www.w3.org/Graphics/SVG/1.1/DTD/svg11.dtd">
<!-- Generated by graphviz version 14.0.4 (20251115.1723)
 -->
<!-- Title: Generator Pages: 1 -->
<svg width="266pt" height="444pt"
 viewBox="0.00 0.00 266.00 444.00" xmlns="http://www.w3.org/2000/svg" xmlns:xlink="http://www.w3.org/1999/xlink">
<g id="graph0" class="graph" transform="scale(1 1) rotate(0) translate(4 440)">
<title>Generator</title>
<!-- Node1 -->
<g id="Node000001" class="node">
<title>Node1</title>
<g id="a_Node000001"><a xlink:title=" ">
<polygon fill="#999999" stroke="none" points="211.12,-436 57.38,-436 57.38,-148 211.12,-148 211.12,-436"/>
<text xml:space="preserve" text-anchor="start" x="112.88" y="-422.5" font-family="Helvetica,sans-Serif" font-size="10.00">Generator</text>
<text xml:space="preserve" text-anchor="start" x="61.75" y="-406.5" font-family="Helvetica,sans-Serif" font-size="10.00">#</text>
<text xml:space="preserve" text-anchor="start" x="71.38" y="-406.5" font-family="Helvetica,sans-Serif" font-size="10.00">double amplitude</text>
<text xml:space="preserve" text-anchor="start" x="61.75" y="-390.5" font-family="Helvetica,sans-Serif" font-size="10.00">#</text>
<text xml:space="preserve" text-anchor="start" x="71.38" y="-390.5" font-family="Helvetica,sans-Serif" font-size="10.00">uint16_t samples_per</text>
<text xml:space="preserve" text-anchor="start" x="71.38" y="-378.5" font-family="Helvetica,sans-Serif" font-size="10.00">_cycle</text>
<text xml:space="preserve" text-anchor="start" x="61.75" y="-362.5" font-family="Helvetica,sans-Serif" font-size="10.00">#</text>
<text xml:space="preserve" text-anchor="start" x="71.38" y="-362.5" font-family="Helvetica,sans-Serif" font-size="10.00">double bias</text>
<text xml:space="preserve" text-anchor="start" x="61.75" y="-346.5" font-family="Helvetica,sans-Serif" font-size="10.00">#</text>
<text xml:space="preserve" text-anchor="start" x="71.38" y="-346.5" font-family="Helvetica,sans-Serif" font-size="10.00">uint16_t internal_clock</text>
<text xml:space="preserve" text-anchor="start" x="61.38" y="-330.5" font-family="Helvetica,sans-Serif" font-size="10.00">+</text>
<text xml:space="preserve" text-anchor="start" x="71.38" y="-330.5" font-family="Helvetica,sans-Serif" font-size="10.00">Generator()</text>
<text xml:space="preserve" text-anchor="start" x="61.38" y="-314.5" font-family="Helvetica,sans-Serif" font-size="10.00">+</text>
<text xml:space="preserve" text-anchor="start" x="71.38" y="-314.5" font-family="Helvetica,sans-Serif" font-size="10.00">virtual double tick()=0</text>
<text xml:space="preserve" text-anchor="start" x="61.38" y="-298.5" font-family="Helvetica,sans-Serif" font-size="10.00">+</text>
<text xml:space="preserve" text-anchor="start" x="71.38" y="-298.5" font-family="Helvetica,sans-Serif" font-size="10.00">void setAmplitude(double</text>
<text xml:space="preserve" text-anchor="start" x="71.38" y="-286.5" font-family="Helvetica,sans-Serif" font-size="10.00"> amplitude)</text>
<text xml:space="preserve" text-anchor="start" x="61.38" y="-270.5" font-family="Helvetica,sans-Serif" font-size="10.00">+</text>
<text xml:space="preserve" text-anchor="start" x="71.38" y="-270.5" font-family="Helvetica,sans-Serif" font-size="10.00">void setSamplesPerCycle</text>
<text xml:space="preserve" text-anchor="start" x="71.38" y="-258.5" font-family="Helvetica,sans-Serif" font-size="10.00">(uint16_t samples_per</text>
<text xml:space="preserve" text-anchor="start" x="71.38" y="-246.5" font-family="Helvetica,sans-Serif" font-size="10.00">_cycle)</text>
<text xml:space="preserve" text-anchor="start" x="61.38" y="-230.5" font-family="Helvetica,sans-Serif" font-size="10.00">+</text>
<text xml:space="preserve" text-anchor="start" x="71.38" y="-230.5" font-family="Helvetica,sans-Serif" font-size="10.00">void setBias(double</text>
<text xml:space="preserve" text-anchor="start" x="71.38" y="-218.5" font-family="Helvetica,sans-Serif" font-size="10.00"> bias)</text>
<text xml:space="preserve" text-anchor="start" x="61.38" y="-202.5" font-family="Helvetica,sans-Serif" font-size="10.00">+</text>
<text xml:space="preserve" text-anchor="start" x="71.38" y="-202.5" font-family="Helvetica,sans-Serif" font-size="10.00">double getAmplitude()</text>
<text xml:space="preserve" text-anchor="start" x="61.38" y="-186.5" font-family="Helvetica,sans-Serif" font-size="10.00">+</text>
<text xml:space="preserve" text-anchor="start" x="71.38" y="-186.5" font-family="Helvetica,sans-Serif" font-size="10.00">uint16_t getSamplesPerCycle()</text>
<text xml:space="preserve" text-anchor="start" x="61.38" y="-170.5" font-family="Helvetica,sans-Serif" font-size="10.00">+</text>
<text xml:space="preserve" text-anchor="start" x="71.38" y="-170.5" font-family="Helvetica,sans-Serif" font-size="10.00">double getBias()</text>
<text xml:space="preserve" text-anchor="start" x="61.38" y="-154.5" font-family="Helvetica,sans-Serif" font-size="10.00">+</text>
<text xml:space="preserve" text-anchor="start" x="71.38" y="-154.5" font-family="Helvetica,sans-Serif" font-size="10.00">void resetClock()</text>
<polygon fill="#666666" stroke="#666666" points="57.38,-418 57.38,-418 211.12,-418 211.12,-418 57.38,-418"/>
<polygon fill="#666666" stroke="#666666" points="57.38,-342 57.38,-342 69.38,-342 69.38,-342 57.38,-342"/>
<polygon fill="#666666" stroke="#666666" points="69.38,-342 69.38,-342 211.12,-342 211.12,-342 69.38,-342"/>
<polygon fill="none" stroke="#666666" points="57.38,-148 57.38,-436 211.12,-436 211.12,-148 57.38,-148"/>
</a>
</g>
</g>
<!-- Node2 -->
<g id="Node000002" class="node">
<title>Node2</title>
<g id="a_Node000002"><a xlink:href="class_generator_prostokatny.html" target="_top" xlink:title=" ">
<polygon fill="white" stroke="none" points="130.5,-112 0,-112 0,0 130.5,0 130.5,-112"/>
<text xml:space="preserve" text-anchor="start" x="17.62" y="-98.5" font-family="Helvetica,sans-Serif" font-size="10.00">GeneratorProstokatny</text>
<text xml:space="preserve" text-anchor="start" x="63.75" y="-82.5" font-family="Helvetica,sans-Serif" font-size="10.00"> </text>
<text xml:space="preserve" text-anchor="start" x="4" y="-66.5" font-family="Helvetica,sans-Serif" font-size="10.00">+</text>
<text xml:space="preserve" text-anchor="start" x="14" y="-66.5" font-family="Helvetica,sans-Serif" font-size="10.00">GeneratorProstokatny()</text>
<text xml:space="preserve" text-anchor="start" x="4" y="-50.5" font-family="Helvetica,sans-Serif" font-size="10.00">+</text>
<text xml:space="preserve" text-anchor="start" x="14" y="-50.5" font-family="Helvetica,sans-Serif" font-size="10.00">double tick() override</text>
<text xml:space="preserve" text-anchor="start" x="4" y="-34.5" font-family="Helvetica,sans-Serif" font-size="10.00">+</text>
<text xml:space="preserve" text-anchor="start" x="14" y="-34.5" font-family="Helvetica,sans-Serif" font-size="10.00">void setDutyCycle(double</text>
<text xml:space="preserve" text-anchor="start" x="14" y="-22.5" font-family="Helvetica,sans-Serif" font-size="10.00"> duty_cycle)</text>
<text xml:space="preserve" text-anchor="start" x="4" y="-6.5" font-family="Helvetica,sans-Serif" font-size="10.00">+</text>
<text xml:space="preserve" text-anchor="start" x="14" y="-6.5" font-family="Helvetica,sans-Serif" font-size="10.00">double getDutyCycle()</text>
<polygon fill="#bfbfbf" stroke="#bfbfbf" points="0,-94 0,-94 130.5,-94 130.5,-94 0,-94"/>
<polygon fill="#bfbfbf" stroke="#bfbfbf" points="0,-78 0,-78 130.5,-78 130.5,-78 0,-78"/>
<polygon fill="none" stroke="#bfbfbf" points="0,0 0,-112 130.5,-112 130.5,0 0,0"/>
</a>
</g>
</g>
<!-- Node1&#45;&gt;Node2 -->
<g id="edge1_Node000001_Node000002" class="edge">
<title>Node1&#45;&gt;Node2</title>
<g id="a_edge1_Node000001_Node000002"><a xlink:title=" ">
<path fill="none" stroke="#63b8ff" d="M88.9,-137.21C86.29,-128.36 83.77,-119.82 81.42,-111.83"/>
<polygon fill="none" stroke="#63b8ff" points="85.51,-138.09 91.7,-146.69 92.23,-136.11 85.51,-138.09"/>
</a>
</g>
</g>
<!-- Node3 -->
<g id="Node000003" class="node">
<title>Node3</title>
<g id="a_Node000003"><a xlink:href="class_generator_sinusoida.html" target="_top" xlink:title=" ">
<polygon fill="white" stroke="none" points="258,-90 148.5,-90 148.5,-22 258,-22 258,-90"/>
<text xml:space="preserve" text-anchor="start" x="160.5" y="-76.5" font-family="Helvetica,sans-Serif" font-size="10.00">GeneratorSinusoida</text>
<text xml:space="preserve" text-anchor="start" x="201.75" y="-60.5" font-family="Helvetica,sans-Serif" font-size="10.00"> </text>
<text xml:space="preserve" text-anchor="start" x="152.5" y="-44.5" font-family="Helvetica,sans-Serif" font-size="10.00">+</text>
<text xml:space="preserve" text-anchor="start" x="162.5" y="-44.5" font-family="Helvetica,sans-Serif" font-size="10.00">GeneratorSinusoida()</text>
<text xml:space="preserve" text-anchor="start" x="152.5" y="-28.5" font-family="Helvetica,sans-Serif" font-size="10.00">+</text>
<text xml:space="preserve" text-anchor="start" x="162.5" y="-28.5" font-family="Helvetica,sans-Serif" font-size="10.00">double tick() override</text>
<polygon fill="#bfbfbf" stroke="#bfbfbf" points="148.5,-72 148.5,-72 258,-72 258,-72 148.5,-72"/>
<polygon fill="#bfbfbf" stroke="#bfbfbf" points="148.5,-56 148.5,-56 258,-56 258,-56 148.5,-56"/>
<polygon fill="none" stroke="#bfbfbf" points="148.5,-22 148.5,-90 258,-90 258,-22 148.5,-22"/>
</a>
</g>
</g>
<!-- Node1&#45;&gt;Node3 -->
<g id="edge2_Node000001_Node000003" class="edge">
<title>Node1&#45;&gt;Node3</title>
<g id="a_edge2_Node000001_Node000003"><a xlink:title=" ">
<path fill="none" stroke="#63b8ff" d="M179.49,-137.58C184.72,-119.86 189.58,-103.37 193.52,-89.99"/>
<polygon fill="none" stroke="#63b8ff" points="176.27,-136.11 176.8,-146.69 182.99,-138.09 176.27,-136.11"/>
</a>
</g>
</g>
</g>
</svg>
