<?xml version="1.0" encoding="UTF-8" standalone="no"?>
<!DOCTYPE svg PUBLIC "-//W3C//DTD SVG 1.1//EN"
 "http://www.w3.org/Graphics/SVG/1.1/DTD/svg11.dtd">
<!-- Generated by graphviz version 14.0.4 (20251115.1723)
 -->
<!-- Title: GeneratorSinusoida Pages: 1 -->
<svg width="162pt" height="400pt"
 viewBox="0.00 0.00 162.00 400.00" xmlns="http://www.w3.org/2000/svg" xmlns:xlink="http://www.w3.org/1999/xlink">
<g id="graph0" class="graph" transform="scale(1 1) rotate(0) translate(4 396)">
<title>GeneratorSinusoida</title>
<!-- Node1 -->
<g id="Node000001" class="node">
<title>Node1</title>
<g id="a_Node000001"><a xlink:title=" ">
<polygon fill="#999999" stroke="none" points="131.62,-68 22.12,-68 22.12,0 131.62,0 131.62,-68"/>
<text xml:space="preserve" text-anchor="start" x="34.12" y="-54.5" font-family="Helvetica,sans-Serif" font-size="10.00">GeneratorSinusoida</text>
<text xml:space="preserve" text-anchor="start" x="75.38" y="-38.5" font-family="Helvetica,sans-Serif" font-size="10.00"> </text>
<text xml:space="preserve" text-anchor="start" x="26.12" y="-22.5" font-family="Helvetica,sans-Serif" font-size="10.00">+</text>
<text xml:space="preserve" text-anchor="start" x="36.12" y="-22.5" font-family="Helvetica,sans-Serif" font-size="10.00">GeneratorSinusoida()</text>
<text xml:space="preserve" text-anchor="start" x="26.12" y="-6.5" font-family="Helvetica,sans-Serif" font-size="10.00">+</text>
<text xml:space="preserve" text-anchor="start" x="36.12" y="-6.5" font-family="Helvetica,sans-Serif" font-size="10.00">double tick() override</text>
<polygon fill="#666666" stroke="#666666" points="22.12,-50 22.12,-50 131.62,-50 131.62,-50 22.12,-50"/>
<polygon fill="#666666" stroke="#666666" points="22.12,-34 22.12,-34 131.62,-34 131.62,-34 22.12,-34"/>
<polygon fill="none" stroke="#666666" points="22.12,0 22.12,-68 131.62,-68 131.62,0 22.12,0"/>
</a>
</g>
</g>
<!-- Node2 -->
<g id="Node000002" class="node">
<title>Node2</title>
<g id="a_Node000002"><a xlink:href="class_generator.html" target="_top" xlink:title=" ">
<polygon fill="white" stroke="none" points="153.75,-392 0,-392 0,-104 153.75,-104 153.75,-392"/>
<text xml:space="preserve" text-anchor="start" x="55.5" y="-378.5" font-family="Helvetica,sans-Serif" font-size="10.00">Generator</text>
<text xml:space="preserve" text-anchor="start" x="4.38" y="-362.5" font-family="Helvetica,sans-Serif" font-size="10.00">#</text>
<text xml:space="preserve" text-anchor="start" x="14" y="-362.5" font-family="Helvetica,sans-Serif" font-size="10.00">double amplitude</text>
<text xml:space="preserve" text-anchor="start" x="4.38" y="-346.5" font-family="Helvetica,sans-Serif" font-size="10.00">#</text>
<text xml:space="preserve" text-anchor="start" x="14" y="-346.5" font-family="Helvetica,sans-Serif" font-size="10.00">uint16_t samples_per</text>
<text xml:space="preserve" text-anchor="start" x="14" y="-334.5" font-family="Helvetica,sans-Serif" font-size="10.00">_cycle</text>
<text xml:space="preserve" text-anchor="start" x="4.38" y="-318.5" font-family="Helvetica,sans-Serif" font-size="10.00">#</text>
<text xml:space="preserve" text-anchor="start" x="14" y="-318.5" font-family="Helvetica,sans-Serif" font-size="10.00">double bias</text>
<text xml:space="preserve" text-anchor="start" x="4.38" y="-302.5" font-family="Helvetica,sans-Serif" font-size="10.00">#</text>
<text xml:space="preserve" text-anchor="start" x="14" y="-302.5" font-family="Helvetica,sans-Serif" font-size="10.00">uint16_t internal_clock</text>
<text xml:space="preserve" text-anchor="start" x="4" y="-286.5" font-family="Helvetica,sans-Serif" font-size="10.00">+</text>
<text xml:space="preserve" text-anchor="start" x="14" y="-286.5" font-family="Helvetica,sans-Serif" font-size="10.00">Generator()</text>
<text xml:space="preserve" text-anchor="start" x="4" y="-270.5" font-family="Helvetica,sans-Serif" font-size="10.00">+</text>
<text xml:space="preserve" text-anchor="start" x="14" y="-270.5" font-family="Helvetica,sans-Serif" font-size="10.00">virtual double tick()=0</text>
<text xml:space="preserve" text-anchor="start" x="4" y="-254.5" font-family="Helvetica,sans-Serif" font-size="10.00">+</text>
<text xml:space="preserve" text-anchor="start" x="14" y="-254.5" font-family="Helvetica,sans-Serif" font-size="10.00">void setAmplitude(double</text>
<text xml:space="preserve" text-anchor="start" x="14" y="-242.5" font-family="Helvetica,sans-Serif" font-size="10.00"> amplitude)</text>
<text xml:space="preserve" text-anchor="start" x="4" y="-226.5" font-family="Helvetica,sans-Serif" font-size="10.00">+</text>
<text xml:space="preserve" text-anchor="start" x="14" y="-226.5" font-family="Helvetica,sans-Serif" font-size="10.00">void setSamplesPerCycle</text>
<text xml:space="preserve" text-anchor="start" x="14" y="-214.5" font-family="Helvetica,sans-Serif" font-size="10.00">(uint16_t samples_per</text>
<text xml:space="preserve" text-anchor="start" x="14" y="-202.5" font-family="Helvetica,sans-Serif" font-size="10.00">_cycle)</text>
<text xml:space="preserve" text-anchor="start" x="4" y="-186.5" font-family="Helvetica,sans-Serif" font-size="10.00">+</text>
<text xml:space="preserve" text-anchor="start" x="14" y="-186.5" font-family="Helvetica,sans-Serif" font-size="10.00">void setBias(double</text>
<text xml:space="preserve" text-anchor="start" x="14" y="-174.5" font-family="Helvetica,sans-Serif" font-size="10.00"> bias)</text>
<text xml:space="preserve" text-anchor="start" x="4" y="-158.5" font-family="Helvetica,sans-Serif" font-size="10.00">+</text>
<text xml:space="preserve" text-anchor="start" x="14" y="-158.5" font-family="Helvetica,sans-Serif" font-size="10.00">double getAmplitude()</text>
<text xml:space="preserve" text-anchor="start" x="4" y="-142.5" font-family="Helvetica,sans-Serif" font-size="10.00">+</text>
<text xml:space="preserve" text-anchor="start" x="14" y="-142.5" font-family="Helvetica,sans-Serif" font-size="10.00">uint16_t getSamplesPerCycle()</text>
<text xml:space="preserve" text-anchor="start" x="4" y="-126.5" font-family="Helvetica,sans-Serif" font-size="10.00">+</text>
<text xml:space="preserve" text-anchor="start" x="14" y="-126.5" font-family="Helvetica,sans-Serif" font-size="10.00">double getBias()</text>
<text xml:space="preserve" text-anchor="start" x="4" y="-110.5" font-family="Helvetica,sans-Serif" font-size="10.00">+</text>
<text xml:space="preserve" text-anchor="start" x="14" y="-110.5" font-family="Helvetica,sans-Serif" font-size="10.00">void resetClock()</text>
<polygon fill="#bfbfbf" stroke="#bfbfbf" points="0,-374 0,-374 153.75,-374 153.75,-374 0,-374"/>
<polygon fill="#bfbfbf" stroke="#bfbfbf" points="0,-298 0,-298 12,-298 12,-298 0,-298"/>
<polygon fill="#bfbfbf" stroke="#bfbfbf" points="12,-298 12,-298 153.75,-298 153.75,-298 12,-298"/>
<polygon fill="none" stroke="#bfbfbf" points="0,-104 0,-392 153.75,-392 153.75,-104 0,-104"/>
</a>
</g>
</g>
<!-- Node2&#45;&gt;Node1 -->
<g id="edge1_Node000001_Node000002" class="edge">
<title>Node2&#45;&gt;Node1</title>
<g id="a_edge1_Node000001_Node000002"><a xlink:title=" ">
<path fill="none" stroke="#63b8ff" d="M76.88,-92.85C76.88,-83.82 76.88,-75.39 76.88,-67.91"/>
<polygon fill="none" stroke="#63b8ff" points="73.38,-92.61 76.88,-102.61 80.38,-92.61 73.38,-92.61"/>
</a>
</g>
</g>
</g>
</svg>
