<?xml version="1.0" encoding="UTF-8" standalone="no"?>
<!DOCTYPE svg PUBLIC "-//W3C//DTD SVG 1.1//EN"
 "http://www.w3.org/Graphics/SVG/1.1/DTD/svg11.dtd">
<!-- Generated by graphviz version 14.0.4 (20251115.1723)
 -->
<!-- Title: DialogArx Pages: 1 -->
<svg width="110pt" height="176pt"
 viewBox="0.00 0.00 110.00 176.00" xmlns="http://www.w3.org/2000/svg" xmlns:xlink="http://www.w3.org/1999/xlink">
<g id="graph0" class="graph" transform="scale(1 1) rotate(0) translate(4 172)">
<title>DialogArx</title>
<!-- Node1 -->
<g id="Node000001" class="node">
<title>Node1</title>
<g id="a_Node000001"><a xlink:title=" ">
<polygon fill="#999999" stroke="none" points="102,-80 0,-80 0,0 102,0 102,-80"/>
<text xml:space="preserve" text-anchor="start" x="29.62" y="-66.5" font-family="Helvetica,sans-Serif" font-size="10.00">DialogArx</text>
<text xml:space="preserve" text-anchor="start" x="49.5" y="-50.5" font-family="Helvetica,sans-Serif" font-size="10.00"> </text>
<text xml:space="preserve" text-anchor="start" x="4" y="-34.5" font-family="Helvetica,sans-Serif" font-size="10.00">+</text>
<text xml:space="preserve" text-anchor="start" x="14" y="-34.5" font-family="Helvetica,sans-Serif" font-size="10.00">DialogArx(QWidget</text>
<text xml:space="preserve" text-anchor="start" x="14" y="-22.5" font-family="Helvetica,sans-Serif" font-size="10.00"> *parent=nullptr)</text>
<text xml:space="preserve" text-anchor="start" x="4" y="-6.5" font-family="Helvetica,sans-Serif" font-size="10.00">+</text>
<text xml:space="preserve" text-anchor="start" x="14" y="-6.5" font-family="Helvetica,sans-Serif" font-size="10.00">~DialogArx()</text>
<polygon fill="#666666" stroke="#666666" points="0,-62 0,-62 102,-62 102,-62 0,-62"/>
<polygon fill="#666666" stroke="#666666" points="0,-46 0,-46 102,-46 102,-46 0,-46"/>
<polygon fill="none" stroke="#666666" points="0,0 0,-80 102,-80 102,0 0,0"/>
</a>
</g>
</g>
<!-- Node2 -->
<g id="Node000002" class="node">
<title>Node2</title>
<g id="a_Node000002"><a xlink:title=" ">
<polygon fill="white" stroke="none" points="72.62,-168 29.38,-168 29.38,-116 72.62,-116 72.62,-168"/>
<text xml:space="preserve" text-anchor="start" x="33.38" y="-154.5" font-family="Helvetica,sans-Serif" font-size="10.00">QDialog</text>
<text xml:space="preserve" text-anchor="start" x="49.5" y="-138.5" font-family="Helvetica,sans-Serif" font-size="10.00"> </text>
<text xml:space="preserve" text-anchor="start" x="49.5" y="-122.5" font-family="Helvetica,sans-Serif" font-size="10.00"> </text>
<polygon fill="#bfbfbf" stroke="#bfbfbf" points="29.38,-150 29.38,-150 72.62,-150 72.62,-150 29.38,-150"/>
<polygon fill="#bfbfbf" stroke="#bfbfbf" points="29.38,-134 29.38,-134 72.62,-134 72.62,-134 29.38,-134"/>
<polygon fill="none" stroke="#bfbfbf" points="29.38,-116 29.38,-168 72.62,-168 72.62,-116 29.38,-116"/>
</a>
</g>
</g>
<!-- Node2&#45;&gt;Node1 -->
<g id="edge1_Node000001_Node000002" class="edge">
<title>Node2&#45;&gt;Node1</title>
<g id="a_edge1_Node000001_Node000002"><a xlink:title=" ">
<path fill="none" stroke="#63b8ff" d="M51,-104.61C51,-96.5 51,-87.86 51,-79.65"/>
<polygon fill="none" stroke="#63b8ff" points="47.5,-104.51 51,-114.51 54.5,-104.51 47.5,-104.51"/>
</a>
</g>
</g>
</g>
</svg>
