<?xml version="1.0" encoding="UTF-8" standalone="no"?>
<!DOCTYPE svg PUBLIC "-//W3C//DTD SVG 1.1//EN"
 "http://www.w3.org/Graphics/SVG/1.1/DTD/svg11.dtd">
<!-- Generated by graphviz version 14.0.4 (20251115.1723)
 -->
<!-- Title: DialogARXnoise Pages: 1 -->
<svg width="139pt" height="176pt"
 viewBox="0.00 0.00 139.00 176.00" xmlns="http://www.w3.org/2000/svg" xmlns:xlink="http://www.w3.org/1999/xlink">
<g id="graph0" class="graph" transform="scale(1 1) rotate(0) translate(4 172)">
<title>DialogARXnoise</title>
<!-- Node1 -->
<g id="Node000001" class="node">
<title>Node1</title>
<g id="a_Node000001"><a xlink:title=" ">
<polygon fill="#999999" stroke="none" points="131.25,-80 0,-80 0,0 131.25,0 131.25,-80"/>
<text xml:space="preserve" text-anchor="start" x="29.62" y="-66.5" font-family="Helvetica,sans-Serif" font-size="10.00">DialogARXnoise</text>
<text xml:space="preserve" text-anchor="start" x="64.12" y="-50.5" font-family="Helvetica,sans-Serif" font-size="10.00"> </text>
<text xml:space="preserve" text-anchor="start" x="4" y="-34.5" font-family="Helvetica,sans-Serif" font-size="10.00">+</text>
<text xml:space="preserve" text-anchor="start" x="14" y="-34.5" font-family="Helvetica,sans-Serif" font-size="10.00">DialogARXnoise(QWidget</text>
<text xml:space="preserve" text-anchor="start" x="14" y="-22.5" font-family="Helvetica,sans-Serif" font-size="10.00"> *parent=nullptr)</text>
<text xml:space="preserve" text-anchor="start" x="4" y="-6.5" font-family="Helvetica,sans-Serif" font-size="10.00">+</text>
<text xml:space="preserve" text-anchor="start" x="14" y="-6.5" font-family="Helvetica,sans-Serif" font-size="10.00">~DialogARXnoise()</text>
<polygon fill="#666666" stroke="#666666" points="0,-62 0,-62 131.25,-62 131.25,-62 0,-62"/>
<polygon fill="#666666" stroke="#666666" points="0,-46 0,-46 131.25,-46 131.25,-46 0,-46"/>
<polygon fill="none" stroke="#666666" points="0,0 0,-80 131.25,-80 131.25,0 0,0"/>
</a>
</g>
</g>
<!-- Node2 -->
<g id="Node000002" class="node">
<title>Node2</title>
<g id="a_Node000002"><a xlink:title=" ">
<polygon fill="white" stroke="none" points="87.25,-168 44,-168 44,-116 87.25,-116 87.25,-168"/>
<text xml:space="preserve" text-anchor="start" x="48" y="-154.5" font-family="Helvetica,sans-Serif" font-size="10.00">QDialog</text>
<text xml:space="preserve" text-anchor="start" x="64.12" y="-138.5" font-family="Helvetica,sans-Serif" font-size="10.00"> </text>
<text xml:space="preserve" text-anchor="start" x="64.12" y="-122.5" font-family="Helvetica,sans-Serif" font-size="10.00"> </text>
<polygon fill="#bfbfbf" stroke="#bfbfbf" points="44,-150 44,-150 87.25,-150 87.25,-150 44,-150"/>
<polygon fill="#bfbfbf" stroke="#bfbfbf" points="44,-134 44,-134 87.25,-134 87.25,-134 44,-134"/>
<polygon fill="none" stroke="#bfbfbf" points="44,-116 44,-168 87.25,-168 87.25,-116 44,-116"/>
</a>
</g>
</g>
<!-- Node2&#45;&gt;Node1 -->
<g id="edge1_Node000001_Node000002" class="edge">
<title>Node2&#45;&gt;Node1</title>
<g id="a_edge1_Node000001_Node000002"><a xlink:title=" ">
<path fill="none" stroke="#63b8ff" d="M65.62,-104.61C65.62,-96.5 65.62,-87.86 65.62,-79.65"/>
<polygon fill="none" stroke="#63b8ff" points="62.13,-104.51 65.63,-114.51 69.13,-104.51 62.13,-104.51"/>
</a>
</g>
</g>
</g>
</svg>
