<?xml version="1.0" encoding="UTF-8" standalone="no"?>
<!DOCTYPE svg PUBLIC "-//W3C//DTD SVG 1.1//EN"
 "http://www.w3.org/Graphics/SVG/1.1/DTD/svg11.dtd">
<!-- Generated by graphviz version 14.0.4 (20251115.1723)
 -->
<!-- Title: MainWindow Pages: 1 -->
<svg width="139pt" height="204pt"
 viewBox="0.00 0.00 139.00 204.00" xmlns="http://www.w3.org/2000/svg" xmlns:xlink="http://www.w3.org/1999/xlink">
<g id="graph0" class="graph" transform="scale(1 1) rotate(0) translate(4 200)">
<title>MainWindow</title>
<!-- Node1 -->
<g id="Node000001" class="node">
<title>Node1</title>
<g id="a_Node000001"><a xlink:title=" ">
<polygon fill="#999999" stroke="none" points="130.5,-108 0,-108 0,0 130.5,0 130.5,-108"/>
<text xml:space="preserve" text-anchor="start" x="37.12" y="-94.5" font-family="Helvetica,sans-Serif" font-size="10.00">MainWindow</text>
<text xml:space="preserve" text-anchor="start" x="63.75" y="-78.5" font-family="Helvetica,sans-Serif" font-size="10.00"> </text>
<text xml:space="preserve" text-anchor="start" x="4" y="-62.5" font-family="Helvetica,sans-Serif" font-size="10.00">+</text>
<text xml:space="preserve" text-anchor="start" x="14" y="-62.5" font-family="Helvetica,sans-Serif" font-size="10.00">MainWindow(QWidget</text>
<text xml:space="preserve" text-anchor="start" x="14" y="-50.5" font-family="Helvetica,sans-Serif" font-size="10.00"> *parent=nullptr)</text>
<text xml:space="preserve" text-anchor="start" x="4" y="-34.5" font-family="Helvetica,sans-Serif" font-size="10.00">+</text>
<text xml:space="preserve" text-anchor="start" x="14" y="-34.5" font-family="Helvetica,sans-Serif" font-size="10.00">~MainWindow()</text>
<text xml:space="preserve" text-anchor="start" x="4" y="-18.5" font-family="Helvetica,sans-Serif" font-size="10.00">+</text>
<text xml:space="preserve" text-anchor="start" x="14" y="-18.5" font-family="Helvetica,sans-Serif" font-size="10.00">void addToPlots(TickData</text>
<text xml:space="preserve" text-anchor="start" x="14" y="-6.5" font-family="Helvetica,sans-Serif" font-size="10.00"> tick_data)</text>
<polygon fill="#666666" stroke="#666666" points="0,-90 0,-90 130.5,-90 130.5,-90 0,-90"/>
<polygon fill="#666666" stroke="#666666" points="0,-74 0,-74 130.5,-74 130.5,-74 0,-74"/>
<polygon fill="none" stroke="#666666" points="0,0 0,-108 130.5,-108 130.5,0 0,0"/>
</a>
</g>
</g>
<!-- Node2 -->
<g id="Node000002" class="node">
<title>Node2</title>
<g id="a_Node000002"><a xlink:title=" ">
<polygon fill="white" stroke="none" points="101.12,-196 29.38,-196 29.38,-144 101.12,-144 101.12,-196"/>
<text xml:space="preserve" text-anchor="start" x="33.38" y="-182.5" font-family="Helvetica,sans-Serif" font-size="10.00">QMainWindow</text>
<text xml:space="preserve" text-anchor="start" x="63.75" y="-166.5" font-family="Helvetica,sans-Serif" font-size="10.00"> </text>
<text xml:space="preserve" text-anchor="start" x="63.75" y="-150.5" font-family="Helvetica,sans-Serif" font-size="10.00"> </text>
<polygon fill="#bfbfbf" stroke="#bfbfbf" points="29.38,-178 29.38,-178 101.12,-178 101.12,-178 29.38,-178"/>
<polygon fill="#bfbfbf" stroke="#bfbfbf" points="29.38,-162 29.38,-162 101.12,-162 101.12,-162 29.38,-162"/>
<polygon fill="none" stroke="#bfbfbf" points="29.38,-144 29.38,-196 101.12,-196 101.12,-144 29.38,-144"/>
</a>
</g>
</g>
<!-- Node2&#45;&gt;Node1 -->
<g id="edge1_Node000001_Node000002" class="edge">
<title>Node2&#45;&gt;Node1</title>
<g id="a_edge1_Node000001_Node000002"><a xlink:title=" ">
<path fill="none" stroke="#63b8ff" d="M65.25,-132.77C65.25,-124.81 65.25,-116.23 65.25,-107.77"/>
<polygon fill="none" stroke="#63b8ff" points="61.75,-132.75 65.25,-142.75 68.75,-132.75 61.75,-132.75"/>
</a>
</g>
</g>
</g>
</svg>
