<?xml version="1.0" encoding="UTF-8" standalone="no"?>
<!DOCTYPE svg PUBLIC "-//W3C//DTD SVG 1.1//EN"
 "http://www.w3.org/Graphics/SVG/1.1/DTD/svg11.dtd">
<!-- Generated by graphviz version 14.0.4 (20251115.1723)
 -->
<!-- Title: Graficzna hierarchia klas Pages: 1 -->
<svg width="214pt" height="66pt"
 viewBox="0.00 0.00 214.00 66.00" xmlns="http://www.w3.org/2000/svg" xmlns:xlink="http://www.w3.org/1999/xlink">
<g id="graph0" class="graph" transform="scale(1 1) rotate(0) translate(4 62)">
<title>Graficzna hierarchia klas</title>
<!-- Node0 -->
<g id="Node000000" class="node">
<title>Node0</title>
<g id="a_Node000000"><a xlink:href="class_generator.html" target="_top" xlink:title=" ">
<polygon fill="white" stroke="#666666" points="58.75,-39 0,-39 0,-19 58.75,-19 58.75,-39"/>
<text xml:space="preserve" text-anchor="middle" x="29.38" y="-25.5" font-family="Helvetica,sans-Serif" font-size="10.00">Generator</text>
</a>
</g>
</g>
<!-- Node1 -->
<g id="Node000001" class="node">
<title>Node1</title>
<g id="a_Node000001"><a xlink:href="class_generator_prostokatny.html" target="_top" xlink:title=" ">
<polygon fill="white" stroke="#666666" points="206,-58 94.75,-58 94.75,-38 206,-38 206,-58"/>
<text xml:space="preserve" text-anchor="middle" x="150.38" y="-44.5" font-family="Helvetica,sans-Serif" font-size="10.00">GeneratorProstokatny</text>
</a>
</g>
</g>
<!-- Node0&#45;&gt;Node1 -->
<g id="edge1_Node000000_Node000001" class="edge">
<title>Node0&#45;&gt;Node1</title>
<g id="a_edge1_Node000000_Node000001"><a xlink:title=" ">
<path fill="none" stroke="#63b8ff" d="M70.39,-35.39C78.06,-36.61 86.23,-37.92 94.29,-39.2"/>
<polygon fill="#63b8ff" stroke="#63b8ff" points="71.1,-31.96 60.68,-33.84 70,-38.87 71.1,-31.96"/>
</a>
</g>
</g>
<!-- Node2 -->
<g id="Node000002" class="node">
<title>Node2</title>
<g id="a_Node000002"><a xlink:href="class_generator_sinusoida.html" target="_top" xlink:title=" ">
<polygon fill="white" stroke="#666666" points="201.12,-20 99.62,-20 99.62,0 201.12,0 201.12,-20"/>
<text xml:space="preserve" text-anchor="middle" x="150.38" y="-6.5" font-family="Helvetica,sans-Serif" font-size="10.00">GeneratorSinusoida</text>
</a>
</g>
</g>
<!-- Node0&#45;&gt;Node2 -->
<g id="edge2_Node000000_Node000002" class="edge">
<title>Node0&#45;&gt;Node2</title>
<g id="a_edge2_Node000000_Node000002"><a xlink:title=" ">
<path fill="none" stroke="#63b8ff" d="M70.5,-22.59C79.8,-21.11 89.81,-19.51 99.47,-17.97"/>
<polygon fill="#63b8ff" stroke="#63b8ff" points="70,-19.13 60.68,-24.16 71.1,-26.04 70,-19.13"/>
</a>
</g>
</g>
</g>
</svg>
