<?xml version="1.0" encoding="UTF-8" standalone="no"?>
<!DOCTYPE svg PUBLIC "-//W3C//DTD SVG 1.1//EN"
 "http://www.w3.org/Graphics/SVG/1.1/DTD/svg11.dtd">
<!-- Generated by graphviz version 14.0.4 (20251115.1723)
 -->
<!-- Title: Graficzna hierarchia klas Pages: 1 -->
<svg width="215pt" height="104pt"
 viewBox="0.00 0.00 215.00 104.00" xmlns="http://www.w3.org/2000/svg" xmlns:xlink="http://www.w3.org/1999/xlink">
<g id="graph0" class="graph" transform="scale(1 1) rotate(0) translate(4 100)">
<title>Graficzna hierarchia klas</title>
<!-- Node0 -->
<g id="Node000000" class="node">
<title>Node0</title>
<g id="a_Node000000"><a xlink:title=" ">
<polygon fill="#e0e0e0" stroke="#999999" points="51.25,-58 0,-58 0,-38 51.25,-38 51.25,-58"/>
<text xml:space="preserve" text-anchor="middle" x="25.62" y="-44.5" font-family="Helvetica,sans-Serif" font-size="10.00">QDialog</text>
</a>
</g>
</g>
<!-- Node1 -->
<g id="Node000001" class="node">
<title>Node1</title>
<g id="a_Node000001"><a xlink:href="class_dialog_a_r_x_cooeficients.html" target="_top" xlink:title=" ">
<polygon fill="white" stroke="#666666" points="206.75,-96 87.25,-96 87.25,-76 206.75,-76 206.75,-96"/>
<text xml:space="preserve" text-anchor="middle" x="147" y="-82.5" font-family="Helvetica,sans-Serif" font-size="10.00">DialogARXCooeficients</text>
</a>
</g>
</g>
<!-- Node0&#45;&gt;Node1 -->
<g id="edge3_Node000000_Node000001" class="edge">
<title>Node0&#45;&gt;Node1</title>
<g id="a_edge3_Node000000_Node000001"><a xlink:title=" ">
<path fill="none" stroke="#63b8ff" d="M62.32,-59.36C78.5,-64.51 97.49,-70.56 113.3,-75.59"/>
<polygon fill="#63b8ff" stroke="#63b8ff" points="63.68,-56.12 53.09,-56.43 61.56,-62.79 63.68,-56.12"/>
</a>
</g>
</g>
<!-- Node2 -->
<g id="Node000002" class="node">
<title>Node2</title>
<g id="a_Node000002"><a xlink:href="class_dialog_a_r_xnoise.html" target="_top" xlink:title=" ">
<polygon fill="white" stroke="#666666" points="191,-58 103,-58 103,-38 191,-38 191,-58"/>
<text xml:space="preserve" text-anchor="middle" x="147" y="-44.5" font-family="Helvetica,sans-Serif" font-size="10.00">DialogARXnoise</text>
</a>
</g>
</g>
<!-- Node0&#45;&gt;Node2 -->
<g id="edge4_Node000000_Node000002" class="edge">
<title>Node0&#45;&gt;Node2</title>
<g id="a_edge4_Node000000_Node000002"><a xlink:title=" ">
<path fill="none" stroke="#63b8ff" d="M63.05,-48C75.55,-48 89.67,-48 102.67,-48"/>
<polygon fill="#63b8ff" stroke="#63b8ff" points="63.16,-44.5 53.16,-48 63.16,-51.5 63.16,-44.5"/>
</a>
</g>
</g>
<!-- Node3 -->
<g id="Node000003" class="node">
<title>Node3</title>
<g id="a_Node000003"><a xlink:href="class_dialog_arx.html" target="_top" xlink:title=" ">
<polygon fill="white" stroke="#666666" points="176.38,-20 117.62,-20 117.62,0 176.38,0 176.38,-20"/>
<text xml:space="preserve" text-anchor="middle" x="147" y="-6.5" font-family="Helvetica,sans-Serif" font-size="10.00">DialogArx</text>
</a>
</g>
</g>
<!-- Node0&#45;&gt;Node3 -->
<g id="edge5_Node000000_Node000003" class="edge">
<title>Node0&#45;&gt;Node3</title>
<g id="a_edge5_Node000000_Node000003"><a xlink:title=" ">
<path fill="none" stroke="#63b8ff" d="M62.59,-36.55C80.08,-30.98 100.81,-24.38 117.23,-19.16"/>
<polygon fill="#63b8ff" stroke="#63b8ff" points="61.56,-33.21 53.09,-39.57 63.68,-39.88 61.56,-33.21"/>
</a>
</g>
</g>
</g>
</svg>
